<svg id="Lag_1" data-name="Lag 1" xmlns="http://www.w3.org/2000/svg" viewBox="0 0 215.95 170.49"><defs><style>.cls-1{fill:none;stroke:#fff;stroke-miterlimit:10;stroke-width:2px;}.cls-2,.cls-3{fill:#fff;}.cls-3{font-size:18px;font-family:Arial-Black, Arial Black;font-weight:800;letter-spacing:-0.07em;}.cls-4{letter-spacing:-0.1em;}.cls-5{letter-spacing:-0.07em;}</style></defs><path class="cls-1" d="M395.67,489.18c11.79-26.29,12.72-57.27,1.93-84A107.1,107.1,0,0,0,196,477a105.81,105.81,0,0,0,4.19,11.18" transform="translate(-190.19 -336.93)"/><path class="cls-2" d="M361.89,501.15a1.07,1.07,0,0,1-.14.16h0c-.1,0-.12-.2,0-.23l.17,0A.14.14,0,0,1,361.89,501.15Z" transform="translate(-190.19 -336.93)"/><path class="cls-2" d="M370.4,501.2a11.49,11.49,0,0,1-2.2.57,15.27,15.27,0,0,0-2-.14,4.73,4.73,0,0,0-1.42.5,16.93,16.93,0,0,1-1.95,1,5.92,5.92,0,0,1-2.21.27c-1.54-.05-3.09-.16-4.63-.24,1.52-1.79,4.18-.11,5.79-1.83h0l8.87-2,2.17-.5a6.76,6.76,0,0,1,1.24-.29c.19-.15.32-.12.4.08l-.18.74c-.11.49-.31,2.24-.74,2.35-.08,0-.44-.2-.56-.25a4.35,4.35,0,0,0-.86-.22A4.79,4.79,0,0,0,370.4,501.2Z" transform="translate(-190.19 -336.93)"/><path class="cls-2" d="M356.85,495.07h0l-.2,0c.06-.36.13-.72.19-1.08C356.84,494.34,356.84,494.7,356.85,495.07Z" transform="translate(-190.19 -336.93)"/><path class="cls-2" d="M356.85,495.08v0c0,.14-.19.11-.19,0v0Z" transform="translate(-190.19 -336.93)"/><path class="cls-2" d="M368.16,480c2.2,1.51,4.5,2.81,6.76,4.19l6.94,4.27a14.92,14.92,0,0,0,6.05,2.56c.42.05,2.87.2,2.86,1,0,.25-1.51.74-1.75.82a9.23,9.23,0,0,1-2.14.37,14.12,14.12,0,0,1-7.15-2,53.45,53.45,0,0,1-6.49-4c-2.06-1.52-3.76-3.66-5.8-5.23s-4.57-2.8-6.3-5.27-3.11-5.45-4.71-8.11c-.5-.84-1-1.69-1.54-2.51l1.31-1.24a89.51,89.51,0,0,0,6.71,9.83A24.78,24.78,0,0,0,368.16,480Z" transform="translate(-190.19 -336.93)"/><path class="cls-2" d="M356,503.14l-.15.19c0-.07,0-.13-.06-.21Z" transform="translate(-190.19 -336.93)"/><path class="cls-2" d="M374.63,498.12a.12.12,0,0,1,.13.15c-.31,1.22-.6,2.44-.91,3.66,0,.08-.08.11-.14.08a4.87,4.87,0,0,0-2.72-.64c-.86.06-1.64.53-2.49.63a9.43,9.43,0,0,1-1.67-.15,4.5,4.5,0,0,0-2.47.75,6.89,6.89,0,0,1-3.48,1c-1.71,0-3.43-.16-5.13-.26-.1,0-.13-.12-.08-.2,1.56-2.19,4.46-.15,6.07-2.17.07-.09.15,0,.17.05l-.17,0c-.11,0-.09.2,0,.23-1.61,1.72-4.27,0-5.79,1.83l-.21,0c0,.08,0,.14.06.21l.15-.19c1.54.08,3.09.19,4.63.24a5.92,5.92,0,0,0,2.21-.27,16.93,16.93,0,0,0,1.95-1,4.73,4.73,0,0,1,1.42-.5,15.27,15.27,0,0,1,2,.14,11.49,11.49,0,0,0,2.2-.57,4.79,4.79,0,0,1,1.73,0,4.35,4.35,0,0,1,.86.22c.12,0,.48.27.56.25.43-.11.63-1.86.74-2.35l.18-.74c-.08-.2-.21-.23-.4-.08a6.76,6.76,0,0,0-1.24.29l-2.17.5-8.87,2h0a1.07,1.07,0,0,0,.14-.16.14.14,0,0,0,0-.11Z" transform="translate(-190.19 -336.93)"/><path class="cls-2" d="M344.32,496.32c0-.08.08-.17.12-.25a1.51,1.51,0,0,0,.09.18A.48.48,0,0,0,344.32,496.32Z" transform="translate(-190.19 -336.93)"/><path class="cls-2" d="M343.17,501.77c.09-.87.16-1.76.24-2.63s.18-2.44.91-2.82a4.74,4.74,0,0,0-.22,1.76,24.88,24.88,0,0,0,.21,2.74c.11,1,.24,2,.28,3,0,.46,0,.92,0,1.37a3.49,3.49,0,0,1-.44,1.72c-.67.78-1.7-.37-2.3-.77a21.84,21.84,0,0,0-2.16-1.2,9.27,9.27,0,0,0-2-.85,5.53,5.53,0,0,1-2.25-.66c-.48-.39-.05-.88.19-1.3a3.85,3.85,0,0,0,.42-1.07c.25-1.07.43-2.17.64-3.25a.11.11,0,0,0-.06-.13c.07-2.58-.46-5.23-.05-7.79a8.92,8.92,0,0,1,3.29-5.09c.29-.26.59-.5.9-.74l1.53.49a4.64,4.64,0,0,0-1.17,1.65l-.05.05c-1.11,1.43-1.27,3.58-1.31,5.46,0,2.11.2,4.26,0,6.37,0,0,0,0,0,0v0a3.12,3.12,0,0,0,.39,1.89c.23.44.57,1,.26,1.51-.14.22-.41.24-.55.48-.56,1,1.42,1.49,1.83,1.56C342.63,503.73,343.05,502.91,343.17,501.77Z" transform="translate(-190.19 -336.93)"/><path class="cls-2" d="M341.14,486.42a.13.13,0,0,0-.08-.21,4.64,4.64,0,0,1,1.17-1.65,8.51,8.51,0,0,1,2.84-1.53A20.43,20.43,0,0,0,347.7,482a10.4,10.4,0,0,0,2.38-2.09c1.09-1.14,2.69-2,3.46.05.41,1.1.51,2.31.95,3.4s1.08,2.28,1.47,3.52a24.94,24.94,0,0,1,.88,7.13c-.06.36-.13.72-.19,1.08,0-3.41-.16-6.75-1.54-9.82a18.21,18.21,0,0,1-1.38-3.72,6.79,6.79,0,0,0-.55-1.89,1.35,1.35,0,0,0-2.19-.3c-.89.69-1.56,1.74-2.47,2.39a10.55,10.55,0,0,1-2.5,1.23c-1.8.67-3.9,1.22-4.82,3.45a.07.07,0,0,1-.07.06Z" transform="translate(-190.19 -336.93)"/><path class="cls-2" d="M341.06,486.21a.13.13,0,0,1,.08.21v0h0c-.06,0-.12-.09-.09-.18A.33.33,0,0,0,341.06,486.21Z" transform="translate(-190.19 -336.93)"/><path class="cls-2" d="M341.12,486.45c-1.14,1.5-1.21,3.81-1.22,5.74a58.24,58.24,0,0,1,0,5.91v0c0-.13-.15-.15-.19,0,.23-2.11,0-4.26,0-6.37,0-1.88.2-4,1.31-5.46l.05-.05a.33.33,0,0,1,0,.06C341,486.36,341.06,486.45,341.12,486.45Z" transform="translate(-190.19 -336.93)"/><path class="cls-2" d="M339.67,498.1s0,0,0,0,.21-.1.19,0h0C339.82,498.24,339.65,498.24,339.67,498.1Z" transform="translate(-190.19 -336.93)"/><path class="cls-2" d="M339.21,477.19H339A.1.1,0,1,1,339.21,477.19Z" transform="translate(-190.19 -336.93)"/><path class="cls-2" d="M339,477.19h.2a1.33,1.33,0,0,1-.12.52C339.06,477.54,339,477.37,339,477.19Z" transform="translate(-190.19 -336.93)"/><path class="cls-2" d="M336.56,497.69v.15a.1.1,0,0,1-.17.08c0-.05,0-.11,0-.17A.08.08,0,0,1,336.56,497.69Z" transform="translate(-190.19 -336.93)"/><path class="cls-2" d="M335.81,500.91c.21-1,.39-2,.58-3a.1.1,0,0,0,.17-.08v-.15a.11.11,0,0,1,.06.13c-.21,1.08-.39,2.18-.64,3.25a3.85,3.85,0,0,1-.42,1.07c-.24.42-.67.91-.19,1.3a5.53,5.53,0,0,0,2.25.66,9.27,9.27,0,0,1,2,.85,21.84,21.84,0,0,1,2.16,1.2c.6.4,1.63,1.55,2.3.77a3.49,3.49,0,0,0,.44-1.72c0-.45,0-.91,0-1.37,0-1-.17-2-.28-3a24.88,24.88,0,0,1-.21-2.74,4.74,4.74,0,0,1,.22-1.76.48.48,0,0,1,.21-.07,1.51,1.51,0,0,1-.09-.18c0,.08-.09.17-.12.25-.73.38-.83,2.05-.91,2.82s-.15,1.76-.24,2.63c-.12,1.14-.54,2-1.58,1.79-.41-.07-2.39-.58-1.83-1.56.14-.24.41-.26.55-.48.31-.52,0-1.07-.26-1.51a3.12,3.12,0,0,1-.39-1.89v0c0,.14.15.14.19,0a2.9,2.9,0,0,0,.19,1.46c.12.26.3.5.41.76a1.48,1.48,0,0,1,.08,1.2,1.15,1.15,0,0,1-.3.32c-.19.15-.52.25-.23.74.08.14.31.23.43.3.58.3,1.57.75,2.12.18s.43-1.6.5-2.29.13-1.46.21-2.19c.11-.92.32-2.45,1.26-2.6.07,0,.12.11.08.19a3.71,3.71,0,0,0-.31,1.88c0,.62.05,1.23.11,1.84.12,1.23.31,2.46.36,3.69s.15,4-1.35,3.8c-.72-.11-1.38-.86-2-1.25a24.42,24.42,0,0,0-2.57-1.37,15.52,15.52,0,0,0-2.56-.73c-.36-.09-1.33-.3-1.37-.89a1.66,1.66,0,0,1,.31-.87A4.32,4.32,0,0,0,335.81,500.91Z" transform="translate(-190.19 -336.93)"/><path class="cls-2" d="M335,480.07a1.17,1.17,0,0,1,.11-.28,1,1,0,0,1,.08.28Z" transform="translate(-190.19 -336.93)"/><path class="cls-2" d="M334.68,478.88l.4,0s-.05.11-.12.09Z" transform="translate(-190.19 -336.93)"/><path class="cls-2" d="M339.09,477.71a1.26,1.26,0,0,1-1.09.69,10.15,10.15,0,0,0-1.9.22,7.83,7.83,0,0,1-1,.23.12.12,0,0,0-.07-.14l-.25-.08a15.4,15.4,0,0,0,1.95-.41c.67-.12,2.22.3,2.3-1C339,477.37,339.06,477.54,339.09,477.71Z" transform="translate(-190.19 -336.93)"/><path class="cls-2" d="M334.48,478.87s-.06,0-.08-.06l.28.07Z" transform="translate(-190.19 -336.93)"/><path class="cls-2" d="M334.4,478.81c0-.07,0-.18.08-.18h.28l.25.08a.12.12,0,0,1,.07.14l-.4,0Z" transform="translate(-190.19 -336.93)"/><path class="cls-2" d="M335.1,479.79a.71.71,0,0,0-.48-.37c-.35-.11-.48.11-.64-.4s0-.31.31-.24l.11,0s0,.06.08.06h.2l.28.06c.07,0,.11,0,.12-.09a7.83,7.83,0,0,0,1-.23,10.15,10.15,0,0,1,1.9-.22,1.26,1.26,0,0,0,1.09-.69,4.24,4.24,0,0,0,1.34,2.47c.17.14.37.2.42.44a2.67,2.67,0,0,1-.43,1.27c-.56.76-1.54.77-2.3.88a2.69,2.69,0,0,0-2.37,1.84,18.14,18.14,0,0,0-1.31,5.1,18.75,18.75,0,0,0-.12,2.36,11,11,0,0,1,0,3.09c-.07.23-.25.75-.52.59a5.52,5.52,0,0,1-.07-.74c-.05-.49-.09-1-.13-1.48-.08-1.11-.14-2.23-.18-3.35a12.83,12.83,0,0,1,.1-2.9,11.74,11.74,0,0,1,1-2.5,5.28,5.28,0,0,0,.33-1.94c0-.43-.09-.34.3-.43a3,3,0,0,0,.72-.16,1.87,1.87,0,0,0,.76-2.58A.9.9,0,0,0,335.1,479.79Z" transform="translate(-190.19 -336.93)"/><path class="cls-2" d="M333.45,490.18c0,1.12.1,2.24.18,3.35,0,.49.08,1,.13,1.48a5.52,5.52,0,0,0,.07.74c.27.16.45-.36.52-.59a11,11,0,0,0,0-3.09,18.75,18.75,0,0,1,.12-2.36,18.14,18.14,0,0,1,1.31-5.1,2.69,2.69,0,0,1,2.37-1.84c.76-.11,1.74-.12,2.3-.88a2.67,2.67,0,0,0,.43-1.27c-.05-.24-.25-.3-.42-.44a4.24,4.24,0,0,1-1.34-2.47,1.33,1.33,0,0,0,.12-.52,4,4,0,0,0,1.89,3.17.15.15,0,0,1,0,.16c-.33.6-.25,1.23-.74,1.71a2.6,2.6,0,0,1-1.38.67,4.45,4.45,0,0,0-2.32.63,5.87,5.87,0,0,0-1.32,2.69,19,19,0,0,0-.86,6.19c0,1.26.49,3.11-.7,3.81-.08,0-.14,0-.15-.1a55.12,55.12,0,0,1-.44-7.59,6.5,6.5,0,0,1,.55-2.64,5.62,5.62,0,0,0,.87-3.6c0-.07,0-.17.09-.16a1.6,1.6,0,0,0,1.75-2.39c-.38-.56-1.16-.16-1.31.39a.1.1,0,0,1-.19,0c-.12-.83-1.77-.15-1.63-1.29.09-.69.91-.39,1.39-.21h-.27c-.08,0-.11.11-.08.18l-.11,0c-.31-.07-.47-.28-.31.24s.29.29.64.4a.71.71,0,0,1,.48.37,1.17,1.17,0,0,0-.11.28h.19a1,1,0,0,0-.08-.28.9.9,0,0,1,1.59-.12,1.87,1.87,0,0,1-.76,2.58,3,3,0,0,1-.72.16c-.39.09-.28,0-.3.43a5.28,5.28,0,0,1-.33,1.94,11.74,11.74,0,0,0-1,2.5A12.83,12.83,0,0,0,333.45,490.18Z" transform="translate(-190.19 -336.93)"/><path class="cls-2" d="M340.62,455.79a3.2,3.2,0,0,0-2.08-.34,6.41,6.41,0,0,1-1.16,0c-.72-.09-1.19-.66-1.75-1.17-2.35-2.2-4.64-4.49-6.8-7l.71-.93a30.38,30.38,0,0,0,2.36,2.32c3.26,2.83,7.57,5.77,11.62,3.91a6.11,6.11,0,0,1,3.09-.88,5.66,5.66,0,0,1,3.65,2.35c1.63,2.09,2.68,4.85,4,7.26.63,1.19,1.29,2.36,2,3.51l-1.31,1.24q-1.62-2.58-3.35-5.07c-.85-1.22-1.72-2.41-2.61-3.6-.67-.9-1.36-2.17-2.39-2.47a.09.09,0,0,0-.12.08c-.51,3.83-1,8.22.53,11.8a10.11,10.11,0,0,0,3.57,4.11,15,15,0,0,1,4.52,4.82c1.12,2,2,4.09,3.23,6s2.53,3.68,3.87,5.42a29.13,29.13,0,0,0,4.14,4.73c.38.32,1.35.69.22.83a2,2,0,0,1-1.44-.55c-.87-.71-1.36-2-2.16-2.78a7.84,7.84,0,0,0-2.46-1.62c-.6-.28-1.53-.88-2.17-.43s-.69,2.2-.82,3c-.21,1.19-.41,2.39-.61,3.57a24.94,24.94,0,0,0-.88-7.13c-.39-1.24-1-2.33-1.47-3.52s-.54-2.3-.95-3.4c-.77-2.05-2.37-1.19-3.46-.05A10.4,10.4,0,0,1,347.7,482a20.43,20.43,0,0,1-2.63,1.07,8.51,8.51,0,0,0-2.84,1.53l-1.53-.49c2.18-1.71,4.79-3.31,5.76-6.33a7.65,7.65,0,0,0,.32-2.7,10.82,10.82,0,0,0-1-3.42c-1.11-2.88-2.35-5.71-3.25-8.71a34.42,34.42,0,0,1-1-4.41C341.4,457.49,341.44,456.37,340.62,455.79Z" transform="translate(-190.19 -336.93)"/><path class="cls-2" d="M330.32,467.78a1.09,1.09,0,0,1,.13-.17c0,.07.05.14.08.2A1.33,1.33,0,0,1,330.32,467.78Z" transform="translate(-190.19 -336.93)"/><path class="cls-2" d="M326.65,460.11h-.12s0-.07,0-.11Z" transform="translate(-190.19 -336.93)"/><path class="cls-2" d="M328.74,464.81a4.16,4.16,0,0,0,.18,1.54,2,2,0,0,0,1.4,1.43,1.58,1.58,0,0,0-.18.7,3.48,3.48,0,0,1-.09.79c-.12.41-.51.52-.83.61a2.06,2.06,0,0,1-.83.17c-.39-.1-.37-.58-.42-1a13.88,13.88,0,0,0-.2-1.82.75.75,0,0,0-.54-.59,3,3,0,0,1-1.46-1c-.17-.21-.32-.4-.58-.3s-.44.47-.66.54a2.5,2.5,0,0,0,.56-1.72,1.3,1.3,0,0,0-.87-1.08,7.05,7.05,0,0,1-1.59-.58c-.85-.64-.42-1.89,0-2.73a5,5,0,0,0,1.72.19l2.21.09c-.13.5-.75.15-.87.64a.83.83,0,0,0,.31.75c.76.66,1.87.34,2.53,1.24A3.26,3.26,0,0,1,328.74,464.81Z" transform="translate(-190.19 -336.93)"/><path class="cls-2" d="M324.41,466.11a1.23,1.23,0,0,1,0-.19.11.11,0,0,0,.14,0Z" transform="translate(-190.19 -336.93)"/><path class="cls-2" d="M357.11,479.35a41.66,41.66,0,0,0,3.09,4.92c1.06,1.48,2.17,2.9,3.29,4.32a16.13,16.13,0,0,0,3.85,3.84.14.14,0,0,1,0,.21,1.83,1.83,0,0,1-2.47-.28c-1.09-1-1.66-2.51-2.87-3.39a11.33,11.33,0,0,0-2.14-1.15c-.37-.16-.93-.47-1.32-.3-.58.26-.61,1.19-.71,1.79-.33,1.92-.65,3.85-1,5.76,0-.37,0-.73,0-1.1.2-1.18.4-2.38.61-3.57.13-.8.13-2.52.82-3s1.57.15,2.17.43a7.84,7.84,0,0,1,2.46,1.62c.8.83,1.29,2.07,2.16,2.78a2,2,0,0,0,1.44.55c1.13-.14.16-.51-.22-.83a29.13,29.13,0,0,1-4.14-4.73c-1.34-1.74-2.67-3.52-3.87-5.42s-2.11-4-3.23-6a15,15,0,0,0-4.52-4.82,10.11,10.11,0,0,1-3.57-4.11c-1.56-3.58-1-8-.53-11.8a.09.09,0,0,1,.12-.08c1,.3,1.72,1.57,2.39,2.47.89,1.19,1.76,2.38,2.61,3.6q1.72,2.49,3.35,5.07c.53.82,1,1.67,1.54,2.51,1.6,2.66,3,5.6,4.71,8.11s4.11,3.59,6.3,5.27,3.74,3.71,5.8,5.23a53.45,53.45,0,0,0,6.49,4,14.12,14.12,0,0,0,7.15,2,9.23,9.23,0,0,0,2.14-.37c.24-.08,1.74-.57,1.75-.82,0-.77-2.44-.92-2.86-1a14.92,14.92,0,0,1-6.05-2.56l-6.94-4.27c-2.26-1.38-4.56-2.68-6.76-4.19a24.78,24.78,0,0,1-5.25-5.32,89.51,89.51,0,0,1-6.71-9.83c-.68-1.15-1.34-2.32-2-3.51-1.29-2.41-2.34-5.17-4-7.26a5.66,5.66,0,0,0-3.65-2.35,6.11,6.11,0,0,0-3.09.88c-4,1.86-8.36-1.08-11.62-3.91a30.38,30.38,0,0,1-2.36-2.32,33.8,33.8,0,0,1-5.6-8.41c.06,0,.15,0,.13-.15s0-.07,0-.1c2.86,6.11,7.31,11.19,12.61,14a8.74,8.74,0,0,0,4.55,1.26c1.46-.07,2.66-1,4.05-1.38,2.37-.66,4.48,1.15,5.86,3.34,1.63,2.56,2.84,5.53,4.35,8.21a89.8,89.8,0,0,0,5.47,8.53c1.92,2.66,3.95,5.53,6.42,7.45a92.16,92.16,0,0,0,7.95,5c2.76,1.69,5.5,3.45,8.29,5.08a11.25,11.25,0,0,0,4.43,1.55,5.3,5.3,0,0,1,3.08,1c.05.05.07.17,0,.21-3,2-6.44,1.6-9.53.3a35.11,35.11,0,0,1-4.75-2.55,34.17,34.17,0,0,1-5-3.4c-1.35-1.18-2.55-2.57-3.91-3.71s-2.66-1.85-4-2.8c-2.67-1.94-4.16-5-5.87-8q-2.92-5.18-6.22-10c-1.07-1.56-2.17-3.1-3.3-4.59-.28-.38-1.52-2.41-2-1.93a4.56,4.56,0,0,0-.15,1.21c-.06.5-.11,1-.15,1.51-.31,3.44-.26,7.39,1.71,10.15a16.52,16.52,0,0,0,3.76,3.3,12,12,0,0,1,3,3.26C355.62,476.27,356.32,477.84,357.11,479.35Z" transform="translate(-190.19 -336.93)"/><path class="cls-2" d="M324.07,437.85c0,.11-.07.17-.13.15l-.07-.16h0s0-.05,0-.07.13-.16.18-.05l0,0S324.06,437.82,324.07,437.85Z" transform="translate(-190.19 -336.93)"/><path class="cls-2" d="M323.87,437.84l.07.16s-.05,0-.06-.08A.25.25,0,0,1,323.87,437.84Z" transform="translate(-190.19 -336.93)"/><path class="cls-2" d="M323.85,437.76s0,.05,0,.07A.17.17,0,0,1,323.85,437.76Z" transform="translate(-190.19 -336.93)"/><path class="cls-2" d="M322.7,439.24a1.7,1.7,0,0,1,.1.14.21.21,0,0,1,0,.11.1.1,0,0,1-.14-.05l-.08-.13C322.55,439.22,322.64,439.15,322.7,439.24Z" transform="translate(-190.19 -336.93)"/><path class="cls-2" d="M322.68,459.61l-.16-.07C322.58,459.48,322.66,459.53,322.68,459.61Z" transform="translate(-190.19 -336.93)"/><path class="cls-2" d="M336.34,455.24c-1-.85-1.92-1.78-2.85-2.69a74.16,74.16,0,0,1-10.93-13.15.15.15,0,0,1,0-.09l.08.13a.1.1,0,0,0,.14.05.21.21,0,0,0,0-.11,68.69,68.69,0,0,0,6,8c2.16,2.46,4.45,4.75,6.8,7,.56.51,1,1.08,1.75,1.17a6.41,6.41,0,0,0,1.16,0,3.2,3.2,0,0,1,2.08.34c.82.58.78,1.7.93,2.71a34.42,34.42,0,0,0,1,4.41c.9,3,2.14,5.83,3.25,8.71a10.82,10.82,0,0,1,1,3.42,7.65,7.65,0,0,1-.32,2.7c-1,3-3.58,4.62-5.76,6.33-.31.24-.61.48-.9.74a8.92,8.92,0,0,0-3.29,5.09c-.41,2.56.12,5.21.05,7.79a.08.08,0,0,0-.13.06c0,.06,0,.12,0,.17s0,0,0-.08c.09-2.74-.51-5.56,0-8.26a9,9,0,0,1,3.08-4.74c2.4-2.2,6.1-3.86,7-7.73.64-2.79-.75-5.35-1.72-7.77a63.88,63.88,0,0,1-2.76-8c-.19-.75-.36-1.52-.5-2.3a10.06,10.06,0,0,0-.43-2.49c-.54-1.11-1.76-.93-2.65-.89A2.61,2.61,0,0,1,336.34,455.24Z" transform="translate(-190.19 -336.93)"/><path class="cls-2" d="M322.6,459.82a.53.53,0,0,1-.17-.08h0l.08-.18s0,0,0,0h0l.16.07a.25.25,0,0,1,0,.08A.83.83,0,0,1,322.6,459.82Z" transform="translate(-190.19 -336.93)"/><path class="cls-2" d="M322.42,459.74c-.11-.07,0-.26.1-.2s0,0,0,0Z" transform="translate(-190.19 -336.93)"/><path class="cls-2" d="M322.7,439.24c-.06-.09-.15,0-.16.07a2.46,2.46,0,0,0-.17-.27,1.82,1.82,0,0,0-.27-.28c.07,0,.15,0,.13-.14s0,0,0-.06a2.6,2.6,0,0,1,.58.76.13.13,0,0,1,0,.06A1.7,1.7,0,0,0,322.7,439.24Z" transform="translate(-190.19 -336.93)"/><path class="cls-2" d="M322.23,438.62c0,.1-.06.17-.13.14l0-.05h0a0,0,0,0,1,0,0l0-.1v0a.09.09,0,0,1,.13-.05l.06.06S322.22,438.6,322.23,438.62Z" transform="translate(-190.19 -336.93)"/><path class="cls-2" d="M324.91,464.4a1.1,1.1,0,0,0-.7-1c-.47-.22-1-.24-1.45-.49-1.16-.61-.82-2.08-.34-3.15h0a.53.53,0,0,0,.17.08c-.39.84-.82,2.09,0,2.73a7.05,7.05,0,0,0,1.59.58,1.3,1.3,0,0,1,.87,1.08,2.5,2.5,0,0,1-.56,1.72.11.11,0,0,1-.14,0,1.23,1.23,0,0,0,0,.19l.12-.18c.22-.07.49-.47.66-.54s.41.09.58.3a3,3,0,0,0,1.46,1,.75.75,0,0,1,.54.59,13.88,13.88,0,0,1,.2,1.82c0,.39,0,.87.42,1a2.06,2.06,0,0,0,.83-.17c.32-.09.71-.2.83-.61a3.48,3.48,0,0,0,.09-.79,1.58,1.58,0,0,1,.18-.7,1.33,1.33,0,0,0,.21,0c0-.06,0-.13-.08-.2a1.09,1.09,0,0,0-.13.17,2,2,0,0,1-1.4-1.43,4.16,4.16,0,0,1-.18-1.54,3.26,3.26,0,0,0-.24-2.08c-.66-.9-1.77-.58-2.53-1.24a.83.83,0,0,1-.31-.75c.12-.49.74-.14.87-.64h.12l-.1-.12s0,.08,0,.11l-2.21-.09a5,5,0,0,1-1.72-.19.83.83,0,0,0,.07-.13.25.25,0,0,0,0-.08,5.92,5.92,0,0,0,2,.17l2,.08a.12.12,0,0,1,.1.13.78.78,0,0,1-.34.62c-.21.11-.24,0-.4.25s-.08.27.1.44a1.09,1.09,0,0,0,.48.24,4.19,4.19,0,0,1,2,.91c.59.67.39,1.59.37,2.45,0,1.22.47,2.59,1.6,2.67a.13.13,0,0,1,.06.21c-.37.37-.2,1-.35,1.55a1,1,0,0,1-.75.72c-.34.12-1,.4-1.36.17s-.31-.72-.35-1.07c-.08-.64,0-1.84-.49-2.21-.19-.12-.46-.14-.66-.24a2.87,2.87,0,0,1-.63-.44c-.21-.18-.39-.53-.64-.58s-.34.15-.53.32-.34.28-.54.13a.13.13,0,0,1,0-.19A2.67,2.67,0,0,0,324.91,464.4Z" transform="translate(-190.19 -336.93)"/><path class="cls-2" d="M322.06,438.71l0,.05S322.06,438.75,322.06,438.71Z" transform="translate(-190.19 -336.93)"/><path class="cls-2" d="M322,438.58l0,.1a0,0,0,0,0,0,0A.16.16,0,0,1,322,438.58Z" transform="translate(-190.19 -336.93)"/><path class="cls-2" d="M303.79,457.58a.14.14,0,0,1,0,.16h0c-.1,0-.12-.15-.06-.21Z" transform="translate(-190.19 -336.93)"/><path class="cls-2" d="M309.54,462.23c.18.26.4.46.6.7a1.53,1.53,0,0,1,.42.7s0,.86-.23.82c0,0-.27-.37-.28-.37a3.05,3.05,0,0,0-.54-.37,6.37,6.37,0,0,1-.55-.35c-.32-.27-.28-.57-.42-1s-.22-.42-.52-.48a2.21,2.21,0,0,0-2.43,1,7.65,7.65,0,0,0-.58,1.79,2.49,2.49,0,0,1-.7,1.31,1,1,0,0,1-.58.23c-.49-.06-.66-.44-.8-1a29.63,29.63,0,0,0-1.17-4.2,18.94,18.94,0,0,0-2-3.75c-.46-.66-1-1.26-1.44-1.93-.12-.19-.25-.4-.35-.6s-.15-.29-.22-.44l.39-.63c.28-.17,1.18.37,1.39.51a31.35,31.35,0,0,1,4.17,3.52c.06,0,.12,0,.14-.05a6.35,6.35,0,0,1,3.48.77C308.58,459.35,308.7,461,309.54,462.23Z" transform="translate(-190.19 -336.93)"/><path class="cls-2" d="M310.14,462.93c-.2-.24-.42-.44-.6-.7-.84-1.25-1-2.88-2.23-3.72a6.35,6.35,0,0,0-3.48-.77.14.14,0,0,0,0-.16l-.06-.05a.05.05,0,0,1,.06,0c1.75,0,3.82.22,4.84,2.22.3.6.49,1.27.79,1.87s.8,1,1.15,1.56.32,1.35-.25,1.63a.09.09,0,0,1-.11,0c-.35-.91-1.48-.8-1.79-1.74a2.22,2.22,0,0,0-.17-.61c-.22-.34-.65-.29-1-.26-1,.11-1.54.78-1.86,1.86-.25.86-.4,2-1.16,2.4a1,1,0,0,1-1.43-.68c-.18-.62-.26-1.3-.42-1.93a20.44,20.44,0,0,0-.63-2.06,18.64,18.64,0,0,0-1.89-3.76c-.65-1-1.45-1.84-2-2.88-.3-.52-.7-1.41.1-1.54s1.92.66,2.62,1.24c1.07.89,2.11,1.84,3.16,2.77-.06.06,0,.21.06.21h0c0,.06-.08.1-.14.05a31.35,31.35,0,0,0-4.17-3.52c-.21-.14-1.11-.68-1.39-.51l-.39.63c.07.15.14.3.22.44s.23.41.35.6c.45.67,1,1.27,1.44,1.93a18.94,18.94,0,0,1,2,3.75,29.63,29.63,0,0,1,1.17,4.2c.14.52.31.9.8,1a1,1,0,0,0,.58-.23,2.49,2.49,0,0,0,.7-1.31,7.65,7.65,0,0,1,.58-1.79,2.21,2.21,0,0,1,2.43-1c.3.06.41.14.52.48s.1.7.42,1a6.37,6.37,0,0,0,.55.35,3.05,3.05,0,0,1,.54.37s.26.37.28.37c.27,0,.24-.78.23-.82A1.53,1.53,0,0,0,310.14,462.93Z" transform="translate(-190.19 -336.93)"/><path class="cls-2" d="M295.55,450.25c-.64.88-2,.66-2.4,1.82a.1.1,0,0,1-.11.08.45.45,0,0,1,0-.11.11.11,0,0,0-.07-.14c.29-.71.88-.89,1.48-1.16a2,2,0,0,0,1.27-1.56,7.85,7.85,0,0,1,.37-1.61,7,7,0,0,1,.77-1.08,6.54,6.54,0,0,0,1-2.34c.35-1.45.49-3,.71-4.48.47-3.29.78-6.69,1.49-9.92a19.77,19.77,0,0,1,1.41-3.91,14,14,0,0,0,1.11-5.08,4.41,4.41,0,0,0-.62-3,5,5,0,0,1-.69-.93,1.63,1.63,0,0,1-.06-1.46c.22-.38.54-.36.89-.35a17.85,17.85,0,0,1,1.79.22,2.78,2.78,0,0,1,2,.83c1.34,1.57,1.89,4.34,2.24,6.48.42,2.65.58,5.35.93,8a68.26,68.26,0,0,1,.78,8.7,33.34,33.34,0,0,1-1,8c-.35,1.37-1.11,2.91-1,4.38a6.23,6.23,0,0,0,2,3.7,16.68,16.68,0,0,1,3.84,5.67,15.06,15.06,0,0,1,.74,3.15c0,.31.06.64.08,1s-.14.91.32.56.44-1.21.46-1.68a14.45,14.45,0,0,0-1.54-7.6,5.68,5.68,0,0,1-.86-3.23,19.75,19.75,0,0,0-.23-4.07c-.46-2.43-1.07-4.71-.3-7.15.4-1.26,1-2.4,1.41-3.66a21.12,21.12,0,0,0,.81-4.5A21.19,21.19,0,0,1,315,430c.14-.47.41-.72.83-.56a1.22,1.22,0,0,1,.54.54,3,3,0,0,0,1.43,1.45,5.38,5.38,0,0,1,1.91.93c1.44,1.34,2,4.2,2.51,6.19l-.06-.06a.09.09,0,0,0-.13.05v0c-.5-1.88-1-4.22-2.12-5.68-.91-1.15-2.43-.86-3.29-2a4.76,4.76,0,0,1-.28-.49c-.19-.34-.65-1.3-1.14-.29a4.66,4.66,0,0,0-.17,1.29c-.1.95-.18,1.91-.28,2.85a19.51,19.51,0,0,1-1,4.7c-.64,1.76-1.59,3.42-1.65,5.42A32.6,32.6,0,0,0,313,450c.25,1.73-.28,3.84.41,5.44.32.76.83,1.39,1.14,2.17a11.28,11.28,0,0,1,.58,2.16,19.57,19.57,0,0,1,.35,4.46c-.06.89-.29,1.76-1,2.07-.06,0-.12-.05-.12-.12a13.9,13.9,0,0,0-3.89-9.78,10.48,10.48,0,0,1-2.49-3.42c-.57-1.55,0-3,.44-4.45A32.93,32.93,0,0,0,309.67,438c-.13-3.52-.75-7-1.11-10.46-.34-3.31-.57-6.79-1.91-9.78-.46-1-.95-1.9-1.95-2.13a19.41,19.41,0,0,0-2.13-.28l-.45-.05c-.27.35-.53.7-.81,1.05a1.44,1.44,0,0,0,.3.62c.2.33.47.57.68.89a3.21,3.21,0,0,1,.48,1.37,13.54,13.54,0,0,1-.29,4.26,27.76,27.76,0,0,1-1.64,4.36,24.2,24.2,0,0,0-1.1,5.19l-.79,5.54c-.39,2.72-.44,6.19-2.08,8.32A4.35,4.35,0,0,0,296,449,3.2,3.2,0,0,1,295.55,450.25Z" transform="translate(-190.19 -336.93)"/><path class="cls-2" d="M293,452a.36.36,0,0,1,0-.11.11.11,0,0,1,.07.14.45.45,0,0,0,0,.11A.1.1,0,0,1,293,452Z" transform="translate(-190.19 -336.93)"/><path class="cls-2" d="M291.35,451a4.9,4.9,0,0,1-.12.6,4.09,4.09,0,0,0-.07-.6Z" transform="translate(-190.19 -336.93)"/><path class="cls-2" d="M290.56,454.57a.11.11,0,0,0-.1-.15,4.22,4.22,0,0,0,.77-2.82,4.9,4.9,0,0,0,.12-.6h0a4.55,4.55,0,0,1-.82,3.66A.29.29,0,0,0,290.56,454.57Z" transform="translate(-190.19 -336.93)"/><path class="cls-2" d="M290.29,454.89a2.85,2.85,0,0,1,.08-.35l.09-.12a.11.11,0,0,1,.1.15.29.29,0,0,1,0,.09,1.46,1.46,0,0,1-.16.21S290.32,454.91,290.29,454.89Z" transform="translate(-190.19 -336.93)"/><path class="cls-2" d="M290.46,454.42l-.09.12v0A.1.1,0,0,1,290.46,454.42Z" transform="translate(-190.19 -336.93)"/><path class="cls-2" d="M290.24,454.7a1,1,0,0,0,.13-.16,2.85,2.85,0,0,0-.08.35A.11.11,0,0,1,290.24,454.7Z" transform="translate(-190.19 -336.93)"/><path class="cls-2" d="M291.23,451.6a4.28,4.28,0,0,1-1.68,2.37c-1.45,1.17-.84,4.09,0,5.58,1.35,2.52,3.8,4.08,3.47,7.5-.06.53-.17,1.06-.18,1.6a3.88,3.88,0,0,0,0,.9c.3.75.52.83.64.27a6,6,0,0,0,.55-1.3l.42-1c.52-1.25,1-2.45-.09-3.55-.53-.56-1.09-1.06-1.61-1.65a9,9,0,0,1-2.46-7.45s.06,0,.09,0a1.46,1.46,0,0,0,.16-.21,7.75,7.75,0,0,0,1,5.61,23.91,23.91,0,0,0,3.17,3.73,2.62,2.62,0,0,1,.32,2.72c-.27.77-.62,1.5-.93,2.24-.15.36-.4,1.41-.73,1.56-.52.25-.7-.85-.73-1.25-.16-1.71.52-3.21-.16-4.9-1.05-2.62-3.49-4-3.87-7.11a5,5,0,0,1,.37-3.08c.33-.45.88-.6,1.25-1a4,4,0,0,0,1-2.22c0-.12.16-.12.19,0a.13.13,0,0,1,0,.06h-.2A4.09,4.09,0,0,1,291.23,451.6Z" transform="translate(-190.19 -336.93)"/><path class="cls-2" d="M280,438.5a.1.1,0,0,0-.05,0c-.11.09-.21-.12-.1-.21a.46.46,0,0,0,.07-.07A1.12,1.12,0,0,0,280,438.5Z" transform="translate(-190.19 -336.93)"/><path class="cls-2" d="M290.35,431.59a4.46,4.46,0,0,0-1.63.45,6.81,6.81,0,0,0-1.23,1.28,3.09,3.09,0,0,1-2.41,1,2.68,2.68,0,0,0-1.92.64,5.8,5.8,0,0,0-1,2.12,3,3,0,0,1-1.52,1.95.9.9,0,0,1-.77-.05c-.32-.24-.23-.53-.26-1,0-.15.18-.15.19,0a2.15,2.15,0,0,0,0,.31.46.46,0,0,1-.07.07c-.11.09,0,.3.1.21a.1.1,0,0,1,.05,0,1.12,1.12,0,0,1-.08-.24,10.25,10.25,0,0,0,2.14-2.55c.45-.77.74-1.71,1.25-2.44,1-1.39,2.63-1.35,4-1.72a7.37,7.37,0,0,0,4.44-3.05c.86-1.36,1.36-3.07,2.63-4a.09.09,0,0,1,.15.07,4,4,0,0,1-.64,2.59c-.3.53-.64,1-.93,1.57s-.41,1.06-.63,1.59A2.18,2.18,0,0,1,290.35,431.59Zm2-2.09c.48-1.29,1.48-2.25,1.86-3.6a1.77,1.77,0,0,0,.12-.82c-.14-.31-.18-.14-.39.07a5.09,5.09,0,0,0-.74,1c-.35.59-.64,1.23-1,1.85-1.39,2.61-3.7,3.55-6.12,4.05a4.94,4.94,0,0,0-2.12.79,6.22,6.22,0,0,0-1.38,2.26,11.11,11.11,0,0,1-2.63,3.4c.39.89,1.62-.42,1.93-1.18a14.17,14.17,0,0,1,.85-2.17c.86-1.35,2.2-.88,3.4-1.2s1.8-1.95,3-2.36c.56-.19,1.14-.2,1.69-.35C291.71,431,292,430.44,292.32,429.5Z" transform="translate(-190.19 -336.93)"/><path class="cls-2" d="M273.69,438.75c1.1-3,4.69-1.09,6.1-3.56a14.52,14.52,0,0,0,.82-2.35,11,11,0,0,1,.93-2A10.2,10.2,0,0,1,284,428c2-1.6,4.45-1.88,6.41-3.47a11.23,11.23,0,0,0,2.7-3.82c.71-1.43,1.39-2.9,2.07-4.37a41.85,41.85,0,0,1,2-4.34,2.18,2.18,0,0,1,2.1-1.2c1.42.06,2.85.34,4.26.53a5.64,5.64,0,0,1,3,1.1c1.87,1.54,2.85,4.4,4,6.65.74,1.42,1.5,2.82,2.3,4.18a14.14,14.14,0,0,0,1.41,2.24,3.25,3.25,0,0,0,2.17.94,7.49,7.49,0,0,1,5.39,3.88,24.26,24.26,0,0,1,2.21,7.4l0,0c0-.11-.17-.06-.18.05-.53-2.91-1.15-6-2.83-8.3a6.89,6.89,0,0,0-3.68-2.54c-1.17-.34-2.41-.2-3.3-1.34a27.19,27.19,0,0,1-2-3.39c-.75-1.33-1.47-2.69-2.16-4.06-1.24-2.46-2.37-5.51-4.88-6.26a26.23,26.23,0,0,0-4.21-.62,7.48,7.48,0,0,0-2-.16c-.85.13-1.35.83-1.77,1.7-1.31,2.71-2.46,5.53-3.81,8.21a9.71,9.71,0,0,1-4.34,4.78c-2.21,1.1-4.44,1.73-6.18,3.87a11.53,11.53,0,0,0-1.95,3.57,6,6,0,0,1-1.37,2.87c-1.62,1.35-4.52.22-5.47,2.78,0,.09-.11.07-.15,0a.15.15,0,0,0,0-.1A0,0,0,0,1,273.69,438.75Z" transform="translate(-190.19 -336.93)"/><path class="cls-2" d="M273.69,438.77a.15.15,0,0,1,0,.1A.11.11,0,0,1,273.69,438.77Z" transform="translate(-190.19 -336.93)"/><path class="cls-2" d="M273.32,449.26c-.05,0-.1-.1-.15-.15s.21-.25.33-.37Z" transform="translate(-190.19 -336.93)"/><path class="cls-2" d="M273.18,449.3a.09.09,0,0,1,.13,0h0A.08.08,0,0,1,273.18,449.3Z" transform="translate(-190.19 -336.93)"/><path class="cls-2" d="M273.15,449.41a12.26,12.26,0,0,1,0,5.49l-1.55-.4a14.29,14.29,0,0,0,.16-2.52c0-.77-.06-1.53-.15-2.29l1.51-.32Z" transform="translate(-190.19 -336.93)"/><path class="cls-2" d="M273.13,455.16a14.13,14.13,0,0,0-.3,2.34,2.77,2.77,0,0,0,.28,1.6.7.7,0,0,0,.43.19,4.89,4.89,0,0,1,1,.29c.72.31,1.23,1,1.91,1.33a4.09,4.09,0,0,0,1.77.16l2.34,0,0,2.25a1,1,0,0,0-.25,0,2.66,2.66,0,0,0-1.21.78,2.9,2.9,0,0,1-2.95.89,53.5,53.5,0,0,0-5.27-1,35.16,35.16,0,0,0-5.13-.2,14.27,14.27,0,0,0,2.05-3.56,7.55,7.55,0,0,1,1.55-2.18,8.57,8.57,0,0,0,1.55-1.63,5.4,5.4,0,0,0,.7-2l1.55.4A2,2,0,0,1,273.13,455.16Z" transform="translate(-190.19 -336.93)"/><path class="cls-2" d="M279.44,456.06c-.52.31-1.06,0-1.44.77a1.56,1.56,0,0,0,.92,2.27,4.16,4.16,0,0,1,1.18.33,1.27,1.27,0,0,1,.54,1.57s-.05.05-.09.05l-2.34,0a4.09,4.09,0,0,1-1.77-.16c-.68-.33-1.19-1-1.91-1.33a4.89,4.89,0,0,0-1-.29.7.7,0,0,1-.43-.19,2.77,2.77,0,0,1-.28-1.6,14.13,14.13,0,0,1,.3-2.34,2,2,0,0,0,.05-.26,12.26,12.26,0,0,0,0-5.49v0a.08.08,0,0,1,0-.07.08.08,0,0,0,.13,0h0a.07.07,0,0,1,0,.06,12.28,12.28,0,0,1,.1,5.33,12.94,12.94,0,0,0-.41,3.23c0,.4.06.93.42,1.12a2.07,2.07,0,0,0,.55.11,4.22,4.22,0,0,1,.81.31c.66.33,1.21,1.1,1.9,1.31a7.83,7.83,0,0,0,2.32.06h.82a1.84,1.84,0,0,0,.47,0c.84-.56-.63-1.31-.84-1.37a2.54,2.54,0,0,1-1.36-.5,2,2,0,0,1,0-2.61c.45-.46,1.4-.29,1.53-1a13.86,13.86,0,0,0-.07-2.65c0-.95-.07-1.9-.1-2.85a6,6,0,0,1,.16-2c.19-.62.62-1.27-.08-1.75-.48-.32-1-.05-1.31.41a5.28,5.28,0,0,0-.6,2.48c-.12,1-.39,2.13-1.4,1.68a2.35,2.35,0,0,1-1.11-1c-.2-.42-.06-1-.57-1.11s-.91.37-1.22.75a.09.09,0,0,0-.13,0,.18.18,0,0,1,0-.16c.06-.19.14-.37.2-.56s.22,0,.17.12l0,0c-.12.12-.23.25-.33.37s.1.11.15.15l.18-.52c.41-.39.91-.68,1.38-.28s.28,1,.64,1.38a2,2,0,0,0,.77.58c.52.18.81,0,1-.67,0-.13,0-.28.06-.42a6.59,6.59,0,0,1,.76-3.08,1.08,1.08,0,0,1,1.5-.38,1.25,1.25,0,0,1,.33,1.63,11.1,11.1,0,0,0-.24,4.31c0,.72.05,1.43.07,2.15a6.84,6.84,0,0,1,0,1.5A.78.78,0,0,1,279.44,456.06Z" transform="translate(-190.19 -336.93)"/><path class="cls-2" d="M265.78,463.84a2,2,0,0,1-.19.21l-.07-.2Z" transform="translate(-190.19 -336.93)"/><path class="cls-2" d="M264.83,443.38l.06.35a1.43,1.43,0,0,1-.22-.26Z" transform="translate(-190.19 -336.93)"/><path class="cls-2" d="M297.16,464.81c-.53-1.66-1.78-2.75-2.76-4a9.58,9.58,0,0,1-1.52-8.84.09.09,0,0,1,.12-.07.36.36,0,0,0,0,.11.1.1,0,0,0,.08.14,9.52,9.52,0,0,0,.34,6.65c.81,1.79,2.25,2.89,3.27,4.47,1.88,2.9.51,6.05-1.22,8.51-1.09,1.55-2.37,3.14-2.78,5.18-.49,2.36.74,4.4,1.7,6.31a124,124,0,0,0,6.1,10.84c1.13,1.79,2.27,3.59,3.53,5.22,1,1.34,3.19,4.07,4.81,2.43a.09.09,0,0,1,.17.05,1.45,1.45,0,0,1-1.38,1.75,5.76,5.76,0,0,1-3.44-1.47,9.48,9.48,0,0,1-2.27-3.2A11.52,11.52,0,0,0,299,495c-1.75-1.43-3.73-2.46-4.91-4.69-1.05-2-1.54-4.76-3.23-6.1-2.66-2.12-5.58,1.39-7.42,3.43a33.53,33.53,0,0,0-2.85,3.57c-.8,1.2-1.36,2.66-2.22,3.79a4.19,4.19,0,0,1-2.59,1.5,6.12,6.12,0,0,0-3.6,1.62c-1.58,1.65-2.64,3.82-5,3.82s-3.59-2-4.74-4.27a35.73,35.73,0,0,1-2.15-4.23c-.18-.52-.28-1.28.27-1.48a.1.1,0,0,1,.11.05,16.87,16.87,0,0,0,4.54,7.13c2.42,2,3.77-1.49,5.33-3.13s3.46-2.4,4.48-4.56,1.14-4.57,2.29-6.56a15.75,15.75,0,0,1,3.73-4.09c.89-.75,1.82-1.48,2.68-2.31a4.82,4.82,0,0,0,1.44-3.9c0-1.48,0-3-.07-4.45a7,7,0,0,0-1-4.1,8.41,8.41,0,0,0-2.39-2,1.66,1.66,0,0,0-2.16-.06c-.32.25-.59.58-.9.84a2.69,2.69,0,0,1-2.31.48c-1.11-.19-2.2-.52-3.31-.71a37,37,0,0,0-7.57-.49.13.13,0,0,1-.07-.21c1.47-1.43,1.93-3.77,3.23-5.37.71-.87,1.68-1.37,2.23-2.43a8.45,8.45,0,0,0,.68-3.91,22.62,22.62,0,0,0-.44-4.36,7.55,7.55,0,0,0-.24-1.07c-.18-.5-.17-.5-.59-.55s-.91,0-1.36-.05a6.7,6.7,0,0,1-4.07-2.41l-.06-.35-.16.09a1.43,1.43,0,0,0,.22.26c.26,1.12,1.16,1.88,1.44,3a5.72,5.72,0,0,1,.06,2.47,4.44,4.44,0,0,1-2.86,3.61,2.28,2.28,0,0,0-1.66,1.14,3.68,3.68,0,0,0,.18,2.57,16.65,16.65,0,0,1,1.09,3.14,2.71,2.71,0,0,1-.37,2c-.74,1-2.86.49-2.85,2.22,0,.11-.09.15-.14.12a1.17,1.17,0,0,1,.05-.11.14.14,0,0,0-.1-.18,1.61,1.61,0,0,1,1.13-1.39c.6-.24,1.32-.22,1.77-.83a2.86,2.86,0,0,0,.22-2.3c-.4-1.65-2.1-3.86-1-5.61.53-.87,1.5-.87,2.26-1.25a4.16,4.16,0,0,0,2-2.73,5.4,5.4,0,0,0-.16-3.44c-.42-1-1.19-1.62-1.29-2.78a.1.1,0,0,1,.17-.08,6.31,6.31,0,0,0,6,2.58c.05,0,.09,0,.1.09a25.75,25.75,0,0,1,.73,3.72c.09.76.13,1.52.15,2.29a14.29,14.29,0,0,1-.16,2.52,5.4,5.4,0,0,1-.7,2,8.57,8.57,0,0,1-1.55,1.63,7.55,7.55,0,0,0-1.55,2.18,14.27,14.27,0,0,1-2.05,3.56h-.26l.07.2a2,2,0,0,0,.19-.21,35.16,35.16,0,0,1,5.13.2,53.5,53.5,0,0,1,5.27,1,2.9,2.9,0,0,0,2.95-.89,2.66,2.66,0,0,1,1.21-.78,1,1,0,0,1,.25,0c1,0,2.22,1.1,3,1.8a5.35,5.35,0,0,1,1.69,3.74c.16,2.07.15,4.24.12,6.31a4.78,4.78,0,0,1-1.72,3.75c-2.4,2.25-5.41,4-6.77,7.45-.63,1.61-.86,3.41-1.54,5a8.42,8.42,0,0,1-2.75,3.27,16.68,16.68,0,0,0-3.3,3.45c-.67.94-1.49,2-2.59,2-1.29,0-2.36-1.37-3.18-2.42a18.66,18.66,0,0,1-2.59-4.42,6,6,0,0,0-.3-.74c-.42,0-.24.52-.2.73a6.86,6.86,0,0,0,.75,1.54l1.45,2.84c.95,1.85,1.87,3.66,3.77,4.07s3.27-.75,4.5-2.32a7,7,0,0,1,2.93-2.6c1.57-.55,3.28-.37,4.45-2,.59-.81,1-1.79,1.51-2.67a22.74,22.74,0,0,1,1.4-2.07,43.13,43.13,0,0,1,3.69-4.24,7.49,7.49,0,0,1,3.74-2.37c2.51-.38,3.72,2.32,4.65,4.66a12,12,0,0,0,2.21,3.92c1.19,1.23,2.63,2,3.9,3.11a10.91,10.91,0,0,1,2.51,3.42c1,1.91,2,3.43,3.74,4.25a7.72,7.72,0,0,0,1.29.48,1.85,1.85,0,0,0,1,0c.48,0,.77-.41.84-1.14,0,0,0,0,0,0-.17,0-.4.27-.6.32a1.63,1.63,0,0,1-.66,0c-1.25-.15-2.28-1.28-3.13-2.31a70.69,70.69,0,0,1-6.34-9.64c-1-1.81-2.07-3.66-3-5.54a33.72,33.72,0,0,1-2.33-4.93c-1.16-3.54,1.22-6.31,2.91-8.82C296.74,469.45,297.92,467.14,297.16,464.81Z" transform="translate(-190.19 -336.93)"/><path class="cls-2" d="M259.72,463.88a1,1,0,0,1,0-.17.14.14,0,0,1,.1.18,1.17,1.17,0,0,0-.05.11A.14.14,0,0,1,259.72,463.88Z" transform="translate(-190.19 -336.93)"/><path class="cls-2" d="M249.59,474.35l-.11-.17.21-.05Z" transform="translate(-190.19 -336.93)"/><path class="cls-2" d="M248,493.84c.13,0,.13.24,0,.24Z" transform="translate(-190.19 -336.93)"/><path class="cls-2" d="M248,493.84v.24a6.57,6.57,0,0,1-1.23-.2Z" transform="translate(-190.19 -336.93)"/><path class="cls-2" d="M279.87,438.26a2.15,2.15,0,0,1,0-.31c0-.15-.21-.15-.19,0,0,.48-.06.77.26,1a.9.9,0,0,0,.77.05,3,3,0,0,0,1.52-1.95,5.8,5.8,0,0,1,1-2.12,2.68,2.68,0,0,1,1.92-.64,3.09,3.09,0,0,0,2.41-1,6.81,6.81,0,0,1,1.23-1.28,4.46,4.46,0,0,1,1.63-.45,2.18,2.18,0,0,0,1.9-1.23c.22-.53.36-1.08.63-1.59s.63-1,.93-1.57a4,4,0,0,0,.64-2.59.09.09,0,0,0-.15-.07c-1.27.89-1.77,2.6-2.63,4a7.37,7.37,0,0,1-4.44,3.05c-1.34.37-3,.33-4,1.72-.51.73-.8,1.67-1.25,2.44A10.25,10.25,0,0,1,279.87,438.26Zm10.67,16.4a4.55,4.55,0,0,0,.82-3.66.13.13,0,0,0,0-.06c0-.12-.18-.12-.19,0a4,4,0,0,1-1,2.22c-.37.42-.92.57-1.25,1a5,5,0,0,0-.37,3.08c.38,3.09,2.82,4.49,3.87,7.11.68,1.69,0,3.19.16,4.9,0,.4.21,1.5.73,1.25.33-.15.58-1.2.73-1.56.31-.74.66-1.47.93-2.24a2.62,2.62,0,0,0-.32-2.72,23.91,23.91,0,0,1-3.17-3.73A7.75,7.75,0,0,1,290.54,454.66Zm13.82,45.49c.85,1,1.88,2.16,3.13,2.31a1.63,1.63,0,0,0,.66,0c.2-.05.43-.3.6-.32,0,0,0,0,0,0-.07.73-.36,1.11-.84,1.14a1.85,1.85,0,0,1-1,0,7.72,7.72,0,0,1-1.29-.48c-1.78-.82-2.75-2.34-3.74-4.25a10.91,10.91,0,0,0-2.51-3.42c-1.27-1.1-2.71-1.88-3.9-3.11a12,12,0,0,1-2.21-3.92c-.93-2.34-2.14-5-4.65-4.66a7.49,7.49,0,0,0-3.74,2.37A43.13,43.13,0,0,0,281.2,490a22.74,22.74,0,0,0-1.4,2.07c-.52.88-.92,1.86-1.51,2.67-1.17,1.62-2.88,1.44-4.45,2a7,7,0,0,0-2.93,2.6c-1.23,1.57-2.63,2.73-4.5,2.32s-2.82-2.22-3.77-4.07l-1.45-2.84a6.86,6.86,0,0,1-.75-1.54c0-.21-.22-.72.2-.73a6,6,0,0,1,.3.74,18.66,18.66,0,0,0,2.59,4.42c.82,1.05,1.89,2.43,3.18,2.42,1.1,0,1.92-1.06,2.59-2a16.68,16.68,0,0,1,3.3-3.45,8.42,8.42,0,0,0,2.75-3.27c.68-1.57.91-3.37,1.54-5,1.36-3.48,4.37-5.2,6.77-7.45a4.78,4.78,0,0,0,1.72-3.75c0-2.07,0-4.24-.12-6.31a5.35,5.35,0,0,0-1.69-3.74c-.76-.7-1.95-1.8-3-1.8l0-2.25s.08,0,.09-.05a1.27,1.27,0,0,0-.54-1.57,4.16,4.16,0,0,0-1.18-.33,1.56,1.56,0,0,1-.92-2.27c.38-.75.92-.46,1.44-.77a.78.78,0,0,0,.35-.6,6.84,6.84,0,0,0,0-1.5c0-.72,0-1.43-.07-2.15a11.1,11.1,0,0,1,.24-4.31,1.25,1.25,0,0,0-.33-1.63,1.08,1.08,0,0,0-1.5.38,6.59,6.59,0,0,0-.76,3.08c0,.14,0,.29-.06.42-.2.7-.49.85-1,.67a2,2,0,0,1-.77-.58c-.36-.4-.23-1-.64-1.38s-1-.11-1.38.28l0,0c.05-.13-.12-.26-.17-.12s-.14.37-.2.56a.18.18,0,0,0,0,.16.08.08,0,0,0,0,.07l-1.51.32a25.75,25.75,0,0,0-.73-3.72c0-.05-.05-.1-.1-.09a6.31,6.31,0,0,1-6-2.58.1.1,0,0,0-.17.08c.1,1.16.87,1.8,1.29,2.78a5.4,5.4,0,0,1,.16,3.44,4.16,4.16,0,0,1-2,2.73c-.76.38-1.73.38-2.26,1.25-1.08,1.75.62,4,1,5.61a2.86,2.86,0,0,1-.22,2.3c-.45.61-1.17.59-1.77.83a1.61,1.61,0,0,0-1.13,1.39.08.08,0,0,0-.08.06c-1,2.85-4.38,1.64-6,3.76-1.47,2-1.54,6-4,6.6.91-2.14,1.77-4.33,2.77-6.41a6.38,6.38,0,0,1,2-2.37,2.27,2.27,0,0,0,.86-1.52,3.58,3.58,0,0,0-2-3.32,4.81,4.81,0,0,0-4.58.15,43.65,43.65,0,0,0-4.92,3,22.7,22.7,0,0,0-4.38,3.69l-1.51-.49a43.3,43.3,0,0,1,6.72-6.1,47.8,47.8,0,0,0,4.06-2.78,27.91,27.91,0,0,0,3.14-3.11,70.87,70.87,0,0,0,5.72-8c.95-1.48,1.87-3,2.94-4.39a6.1,6.1,0,0,1,2.14-1.86,3,3,0,0,1,2.8.37,4.84,4.84,0,0,0,4,.78,12.33,12.33,0,0,0,4.26-2.82.2.2,0,0,0,0-.08c0,.07.12.09.15,0,.95-2.56,3.85-1.43,5.47-2.78a6,6,0,0,0,1.37-2.87,11.53,11.53,0,0,1,1.95-3.57c1.74-2.14,4-2.77,6.18-3.87a9.71,9.71,0,0,0,4.34-4.78c1.35-2.68,2.5-5.5,3.81-8.21.42-.87.92-1.57,1.77-1.7a7.48,7.48,0,0,1,2,.16,26.23,26.23,0,0,1,4.21.62c2.51.75,3.64,3.8,4.88,6.26.69,1.37,1.41,2.73,2.16,4.06a27.19,27.19,0,0,0,2,3.39c.89,1.14,2.13,1,3.3,1.34a6.89,6.89,0,0,1,3.68,2.54c1.68,2.27,2.3,5.39,2.83,8.3a.17.17,0,0,0,0,.07h0a.25.25,0,0,0,0,.08c0,.05,0,.07.06.08a33.8,33.8,0,0,0,5.6,8.41l-.71.93a68.69,68.69,0,0,1-6-8,.13.13,0,0,0,0-.06,2.6,2.6,0,0,0-.58-.76c-.52-2-1.07-4.85-2.51-6.19a5.38,5.38,0,0,0-1.91-.93,3,3,0,0,1-1.43-1.45,1.22,1.22,0,0,0-.54-.54c-.42-.16-.69.09-.83.56a21.19,21.19,0,0,0-.42,3.84,21.12,21.12,0,0,1-.81,4.5c-.41,1.26-1,2.4-1.41,3.66-.77,2.44-.16,4.72.3,7.15a19.75,19.75,0,0,1,.23,4.07,5.68,5.68,0,0,0,.86,3.23,14.45,14.45,0,0,1,1.54,7.6c0,.47-.08,1.38-.46,1.68s-.3-.27-.32-.56-.05-.65-.08-1a15.06,15.06,0,0,0-.74-3.15,16.68,16.68,0,0,0-3.84-5.67,6.23,6.23,0,0,1-2-3.7c-.08-1.47.68-3,1-4.38a33.34,33.34,0,0,0,1-8,68.26,68.26,0,0,0-.78-8.7c-.35-2.67-.51-5.37-.93-8-.35-2.14-.9-4.91-2.24-6.48a2.78,2.78,0,0,0-2-.83,17.85,17.85,0,0,0-1.79-.22c-.35,0-.67,0-.89.35a1.63,1.63,0,0,0,.06,1.46,5,5,0,0,0,.69.93,4.41,4.41,0,0,1,.62,3,14,14,0,0,1-1.11,5.08,19.77,19.77,0,0,0-1.41,3.91c-.71,3.23-1,6.63-1.49,9.92-.22,1.49-.36,3-.71,4.48a6.54,6.54,0,0,1-1,2.34,7,7,0,0,0-.77,1.08,7.85,7.85,0,0,0-.37,1.61,2,2,0,0,1-1.27,1.56c-.6.27-1.19.45-1.48,1.16a.09.09,0,0,0-.12.07,9.58,9.58,0,0,0,1.52,8.84c1,1.25,2.23,2.34,2.76,4,.76,2.33-.42,4.64-1.6,6.41-1.69,2.51-4.07,5.28-2.91,8.82A33.72,33.72,0,0,0,295,485c1,1.88,2,3.73,3,5.54A70.69,70.69,0,0,0,304.36,500.15Z" transform="translate(-190.19 -336.93)"/><path class="cls-2" d="M249.48,474.18l.11.17.1-.22c2.46-.64,2.53-4.64,4-6.6,1.58-2.12,4.95-.91,6-3.76a.08.08,0,0,1,.08-.06,1,1,0,0,0,0,.17.14.14,0,0,0,.06.12,3.35,3.35,0,0,1-2.26,2c-1.49.48-3,.51-4,2.18-1.23,2.08-1.46,5.84-4,6.27-.08,0-.15-.07-.1-.18l2-4.77a10.52,10.52,0,0,1,2-3.59c.38-.36.85-.58,1.2-1a2.29,2.29,0,0,0,.11-2.71,4.05,4.05,0,0,0-4-1.95,10.38,10.38,0,0,0-3.87,1.72c-1,.6-2,1.21-3,1.87a22.61,22.61,0,0,0-5.45,5,29.94,29.94,0,0,1-4.1,5.05c-1.77,1.47-4.19,1.66-4.71,4.63-.29,1.61-.43,3.31-.59,4.94q-.09,1-.15,1.95c0,.59-.26,1.92.21,2.29a4.13,4.13,0,0,0,1.54.29c.31,0,.62.08.94.1a14.88,14.88,0,0,0,1.89,0c1.12-.06,2.22-.32,3.34-.49a4.46,4.46,0,0,1,3.08.39,7.66,7.66,0,0,1,1.88,1.81,13.89,13.89,0,0,0,2.68,2.78,7.25,7.25,0,0,0,3.55,1.25l-1.23,0a7.5,7.5,0,0,1-3.21-1.71c-1.22-1.09-2.08-2.7-3.36-3.68-1.78-1.37-3.87-.45-5.79-.23a15.66,15.66,0,0,1-5.66-.41.11.11,0,0,1-.08-.12,56.29,56.29,0,0,1,.63-8.31,6.52,6.52,0,0,1,.76-2.76,4.66,4.66,0,0,1,1.84-1.56,12.32,12.32,0,0,0,4.1-3.32c1.17-1.46,2.18-3.1,3.41-4.47a22.7,22.7,0,0,1,4.38-3.69,43.65,43.65,0,0,1,4.92-3,4.81,4.81,0,0,1,4.58-.15,3.58,3.58,0,0,1,2,3.32,2.27,2.27,0,0,1-.86,1.52,6.38,6.38,0,0,0-2,2.37c-1,2.08-1.86,4.27-2.77,6.41Z" transform="translate(-190.19 -336.93)"/><path class="cls-2" d="M257.86,491.89a1.59,1.59,0,0,0-.07-.2l-.16.2Zm-50.37,1.59a5.23,5.23,0,0,1,2.55-2,5.75,5.75,0,0,0,3.09-2.36,26.64,26.64,0,0,1,2.75-3,32.7,32.7,0,0,1,5.73-4.62c1.47-.84,3-1.22,3.93.76a30.06,30.06,0,0,1,1.17,3.92c.2.75.39,1.5.62,2.24s.63.89,1.26,1.05a35.17,35.17,0,0,0,8.1,1,7.66,7.66,0,0,1,3,.32,4.75,4.75,0,0,1,2,1.77,32.18,32.18,0,0,1,1.74,3c.7,1.28,1.39,3.1,2.67,3.63,2.49,1,4.43-2,6.2-3.56s3.85-1.93,5.29-3.74a8.6,8.6,0,0,0-6,2.53c-1.24,1.21-2.23,3.47-3.94,3.74-1.38.21-2.77-1.14-3-2.79-.07-.53-.09-1.16.35-1.41a2.66,2.66,0,0,1,1.16,0l.6,0a6.57,6.57,0,0,0,1.23.2l-1.52.05c-.3,0-1-.12-1.23,0-1.11.74.11,2.74.76,3.26,1.73,1.38,3.16-.41,4.3-1.89a9.2,9.2,0,0,1,7.52-3.89c.09,0,.13.13.08.21-1.57,2.15-4.11,2.62-5.93,4.38-1.61,1.55-3.4,3.9-5.69,3.25a3.6,3.6,0,0,1-2-1.92c-.69-1.21-1.34-2.47-2-3.68a6.22,6.22,0,0,0-2.65-2.9,9.81,9.81,0,0,0-3.62-.32,34.2,34.2,0,0,1-7.52-1c-.93-.22-1.19-.51-1.49-1.59-.42-1.49-.82-3-1.25-4.48a5.5,5.5,0,0,0-.92-2.09,1.81,1.81,0,0,0-2.14-.31,10.94,10.94,0,0,0-2.95,1.86,39.74,39.74,0,0,0-6,5.53,12.68,12.68,0,0,1-2.28,2.54c-.89.62-1.94.54-2.79,1.27a12.37,12.37,0,0,0-1.24,1.33c0-.09,0-.18,0-.26h0Z" transform="translate(-190.19 -336.93)"/><path class="cls-2" d="M210,491.52a5.23,5.23,0,0,0-2.55,2l0,0h0a3.44,3.44,0,0,0-.28-.93,2.17,2.17,0,0,0,.43-.38,2.23,2.23,0,0,0,.6-1.24c.06-.55-.66-1.57-.27-2s1.26-.15,1.72-.23a5.24,5.24,0,0,0,1.65-.62,12.45,12.45,0,0,0,2.92-2.58c1-1.09,1.85-2.25,2.85-3.3a30.34,30.34,0,0,1,4-3.5c2.65-1.92,5.45-3.48,8.2-5.18a42.85,42.85,0,0,0,7.67-5.82l.93-.93,1.51.49c-1.23,1.37-2.24,3-3.41,4.47a12.32,12.32,0,0,1-4.1,3.32,4.66,4.66,0,0,0-1.84,1.56,6.52,6.52,0,0,0-.76,2.76,56.29,56.29,0,0,0-.63,8.31.11.11,0,0,0,.08.12,15.66,15.66,0,0,0,5.66.41c1.92-.22,4-1.14,5.79.23,1.28,1,2.14,2.59,3.36,3.68a7.5,7.5,0,0,0,3.21,1.71l-.6,0a2.66,2.66,0,0,0-1.16,0c-.44.25-.42.88-.35,1.41.21,1.65,1.6,3,3,2.79,1.71-.27,2.7-2.53,3.94-3.74a8.6,8.6,0,0,1,6-2.53c-1.44,1.81-3.63,2.28-5.29,3.74s-3.71,4.55-6.2,3.56c-1.28-.53-2-2.35-2.67-3.63a32.18,32.18,0,0,0-1.74-3,4.75,4.75,0,0,0-2-1.77,7.66,7.66,0,0,0-3-.32,35.17,35.17,0,0,1-8.1-1c-.63-.16-1-.25-1.26-1.05s-.42-1.49-.62-2.24a30.06,30.06,0,0,0-1.17-3.92c-.88-2-2.46-1.6-3.93-.76a32.7,32.7,0,0,0-5.73,4.62,26.64,26.64,0,0,0-2.75,3A5.75,5.75,0,0,1,210,491.52Z" transform="translate(-190.19 -336.93)"/><path class="cls-2" d="M207.88,491.38c.3-.82-.46-1.83-.2-2.39l.52-.36h0a1.06,1.06,0,0,1,.2,0,9,9,0,0,0,2-.29,6.81,6.81,0,0,0,2-1.24,31.89,31.89,0,0,0,3.36-3.67c4.42-5.21,10.21-7.81,15.52-11.35a47.72,47.72,0,0,0,7.77-6.73,44.06,44.06,0,0,1,3.42-3.29,44.88,44.88,0,0,1,4.27-2.93c5.2-3.46,8.65-9.37,12.28-14.86,1.39-2.11,3.25-4.88,5.76-3.84.71.3,1.35.81,2.06,1.09a3.8,3.8,0,0,0,2.49,0,11.73,11.73,0,0,0,4.22-2.79c.05,0,.09,0,.12,0a.11.11,0,0,0,0,.1.2.2,0,0,1,0,.08,12.33,12.33,0,0,1-4.26,2.82,4.84,4.84,0,0,1-4-.78,3,3,0,0,0-2.8-.37,6.1,6.1,0,0,0-2.14,1.86c-1.07,1.36-2,2.91-2.94,4.39a70.87,70.87,0,0,1-5.72,8,27.91,27.91,0,0,1-3.14,3.11,47.8,47.8,0,0,1-4.06,2.78,43.3,43.3,0,0,0-6.72,6.1l-.93.93a42.85,42.85,0,0,1-7.67,5.82c-2.75,1.7-5.55,3.26-8.2,5.18a30.34,30.34,0,0,0-4,3.5c-1,1.05-1.89,2.21-2.85,3.3a12.45,12.45,0,0,1-2.92,2.58,5.24,5.24,0,0,1-1.65.62c-.46.08-1.36-.14-1.72.23s.33,1.43.27,2a2.23,2.23,0,0,1-.6,1.24,2.17,2.17,0,0,1-.43.38l-.08-.17A2.06,2.06,0,0,0,207.88,491.38Z" transform="translate(-190.19 -336.93)"/><text class="cls-3" transform="translate(32.81 61.72)">RASMUS <tspan class="cls-4" x="83.17" y="0">T</tspan><tspan class="cls-5" x="94.29" y="0">OURS</tspan></text></svg>
